<svg width="512" height="512" viewBox="0 0 512 512" fill="none" xmlns="http://www.w3.org/2000/svg">
  <defs>
    <linearGradient id="aGradient" x1="205" y1="154" x2="374" y2="360" gradientUnits="userSpaceOnUse">
      <stop offset="0" stop-color="#7C3AED"/>
      <stop offset="0.55" stop-color="#3B82F6"/>
      <stop offset="1" stop-color="#22D3EE"/>
    </linearGradient>
  </defs>
  <rect width="512" height="512" rx="96" fill="#071225"/>
  <path d="M142 139 L194 172 V326 H285 L316 378 H142 V139Z" fill="white"/>
  <path d="M288 154 C298 154 307 160 313 171 L399 378 H338 L288 255 L238 378 H179 L263 171 C268 160 278 154 288 154Z" fill="url(#aGradient)"/>
  <path d="M288 252 L313 314 H263 L288 252Z" fill="#071225" fill-opacity="0.98"/>
  <path d="M244 266 L259 274 L267 289 L275 274 L290 266 L275 258 L267 243 L259 258 L244 266Z" fill="white"/>
</svg>
