0
SECTION
2
HEADER
9
$ACADVER
1
AC1009
9
$INSUNITS
70
4
0
ENDSEC
0
SECTION
2
TABLES
0
TABLE
2
LTYPE
70
4
0
LTYPE
2
CONTINUOUS
70
0
3
Solid line
72
65
73
0
40
0.0
0
LTYPE
2
CENTER
70
0
3
Center ____ _ ____ _ ____
72
65
73
4
40
12.0
49
8.0
74
0
49
-2.0
74
0
49
2.0
74
0
49
-2.0
74
0
LTYPE
2
HIDDEN
70
0
3
Hidden __ __ __ __
72
65
73
2
40
6.0
49
4.0
74
0
49
-2.0
74
0
0
ENDTAB
0
TABLE
2
LAYER
70
8
0
LAYER
2
BORDER
70
0
62
7
6
CONTINUOUS
0
LAYER
2
PART
70
0
62
1
6
CONTINUOUS
0
LAYER
2
CENTER
70
0
62
5
6
CENTER
0
LAYER
2
HIDDEN
70
0
62
8
6
HIDDEN
0
LAYER
2
DIM
70
0
62
3
6
CONTINUOUS
0
LAYER
2
TEXT
70
0
62
7
6
CONTINUOUS
0
LAYER
2
HATCH
70
0
62
8
6
CONTINUOUS
0
LAYER
2
CALLOUT
70
0
62
2
6
CONTINUOUS
0
ENDTAB
0
ENDSEC
0
SECTION
2
ENTITIES
999
A3 FRAME
0
LINE
8
BORDER
10
10
20
10
30
0
11
410
21
10
31
0
0
LINE
8
BORDER
10
410
20
10
30
0
11
410
21
287
31
0
0
LINE
8
BORDER
10
410
20
287
30
0
11
10
21
287
31
0
0
LINE
8
BORDER
10
10
20
287
30
0
11
10
21
10
31
0
0
LINE
8
BORDER
10
15
20
15
30
0
11
405
21
15
31
0
0
LINE
8
BORDER
10
405
20
15
30
0
11
405
21
282
31
0
0
LINE
8
BORDER
10
405
20
282
30
0
11
15
21
282
31
0
0
LINE
8
BORDER
10
15
20
282
30
0
11
15
21
15
31
0
999
TITLE BLOCK
0
LINE
8
BORDER
10
250
20
15
30
0
11
405
21
15
31
0
0
LINE
8
BORDER
10
405
20
15
30
0
11
405
21
65
31
0
0
LINE
8
BORDER
10
405
20
65
30
0
11
250
21
65
31
0
0
LINE
8
BORDER
10
250
20
65
30
0
11
250
21
15
31
0
0
LINE
8
BORDER
10
250
20
35
30
0
11
405
21
35
31
0
0
LINE
8
BORDER
10
250
20
50
30
0
11
405
21
50
31
0
0
LINE
8
BORDER
10
310
20
15
30
0
11
310
21
65
31
0
0
LINE
8
BORDER
10
360
20
15
30
0
11
360
21
50
31
0
0
TEXT
8
TEXT
10
255
20
55
30
0
40
3.2
1
PROJECT
0
TEXT
8
TEXT
10
315
20
55
30
0
40
3.2
1
LINGAI / AIONUI
0
TEXT
8
TEXT
10
255
20
42
30
0
40
3.2
1
DRAWING
0
TEXT
8
TEXT
10
315
20
42
30
0
40
3.2
1
AI SERVO MOUNTING BRACKET
0
TEXT
8
TEXT
10
255
20
25
30
0
40
3.0
1
SCALE
0
TEXT
8
TEXT
10
315
20
25
30
0
40
3.0
1
1:1
0
TEXT
8
TEXT
10
365
20
25
30
0
40
3.0
1
REV A
0
TEXT
8
TEXT
10
365
20
42
30
0
40
3.0
1
DWG-AX-042
0
TEXT
8
TEXT
10
255
20
18
30
0
40
2.5
1
UNITS: mm  |  TOL: ISO 2768-mK  |  MATERIAL: 6061-T6 AL
999
MAIN TOP VIEW
0
TEXT
8
TEXT
10
92
20
232
30
0
40
4.0
1
TOP VIEW - PRECISION LIGHTWEIGHT AI SERVO BRACKET
0
LINE
8
PART
10
80
20
120
30
0
11
260
21
120
31
0
0
LINE
8
PART
10
260
20
120
30
0
11
260
21
210
31
0
0
LINE
8
PART
10
260
20
210
30
0
11
80
21
210
31
0
0
LINE
8
PART
10
80
20
210
30
0
11
80
21
120
31
0
0
LINE
8
PART
10
100
20
135
30
0
11
240
21
135
31
0
0
LINE
8
PART
10
100
20
195
30
0
11
240
21
195
31
0
0
LINE
8
PART
10
100
20
135
30
0
11
100
21
195
31
0
0
LINE
8
PART
10
240
20
135
30
0
11
240
21
195
31
0
0
0
CIRCLE
8
PART
10
110
20
150
30
0
40
6
0
CIRCLE
8
PART
10
230
20
150
30
0
40
6
0
CIRCLE
8
PART
10
110
20
180
30
0
40
6
0
CIRCLE
8
PART
10
230
20
180
30
0
40
6
0
CIRCLE
8
PART
10
170
20
165
30
0
40
18
0
CIRCLE
8
PART
10
170
20
165
30
0
40
32
0
CIRCLE
8
HIDDEN
10
170
20
165
30
0
40
42
0
LINE
8
CENTER
10
170
20
112
30
0
11
170
21
218
31
0
0
LINE
8
CENTER
10
72
20
165
30
0
11
268
21
165
31
0
0
LINE
8
CENTER
10
102
20
150
30
0
11
118
21
150
31
0
0
LINE
8
CENTER
10
110
20
142
30
0
11
110
21
158
31
0
0
LINE
8
CENTER
10
222
20
150
30
0
11
238
21
150
31
0
0
LINE
8
CENTER
10
230
20
142
30
0
11
230
21
158
31
0
0
LINE
8
CENTER
10
102
20
180
30
0
11
118
21
180
31
0
0
LINE
8
CENTER
10
110
20
172
30
0
11
110
21
188
31
0
0
LINE
8
CENTER
10
222
20
180
30
0
11
238
21
180
31
0
0
LINE
8
CENTER
10
230
20
172
30
0
11
230
21
188
31
0
0
TEXT
8
CALLOUT
10
185
20
203
30
0
40
3.2
1
4x Ø12 THRU, C'BORE Ø18 x 6 DP
0
LINE
8
CALLOUT
10
184
20
201
30
0
11
230
21
180
31
0
0
TEXT
8
CALLOUT
10
187
20
187
30
0
40
3.2
1
Ø36 H7 LOCATING BORE
0
LINE
8
CALLOUT
10
186
20
185
30
0
11
170
21
165
31
0
999
DIMENSIONS TOP VIEW
0
LINE
8
DIM
10
80
20
105
30
0
11
260
21
105
31
0
0
LINE
8
DIM
10
80
20
115
30
0
11
80
21
100
31
0
0
LINE
8
DIM
10
260
20
115
30
0
11
260
21
100
31
0
0
TEXT
8
DIM
10
158
20
96
30
0
40
3.2
1
180.00
0
LINE
8
DIM
10
65
20
120
30
0
11
65
21
210
31
0
0
LINE
8
DIM
10
75
20
120
30
0
11
60
21
120
31
0
0
LINE
8
DIM
10
75
20
210
30
0
11
60
21
210
31
0
0
TEXT
8
DIM
10
48
20
162
30
0
40
3.2
50
90
1
90.00
0
LINE
8
DIM
10
110
20
225
30
0
11
230
21
225
31
0
0
LINE
8
DIM
10
110
20
210
30
0
11
110
21
230
31
0
0
LINE
8
DIM
10
230
20
210
30
0
11
230
21
230
31
0
0
TEXT
8
DIM
10
158
20
228
30
0
40
3.0
1
120 PCD-X
0
LINE
8
DIM
10
275
20
150
30
0
11
275
21
180
31
0
0
LINE
8
DIM
10
260
20
150
30
0
11
280
21
150
31
0
0
LINE
8
DIM
10
260
20
180
30
0
11
280
21
180
31
0
0
TEXT
8
DIM
10
280
20
161
30
0
40
3.0
50
90
1
30 PITCH
999
SECTION VIEW
0
TEXT
8
TEXT
10
80
20
80
30
0
40
4.0
1
SECTION A-A  |  RIBBED POCKET + BOSSED CENTER
0
LINE
8
PART
10
80
20
45
30
0
11
260
21
45
31
0
0
LINE
8
PART
10
260
20
45
30
0
11
260
21
72
31
0
0
LINE
8
PART
10
260
20
72
30
0
11
80
21
72
31
0
0
LINE
8
PART
10
80
20
72
30
0
11
80
21
45
31
0
0
LINE
8
PART
10
130
20
72
30
0
11
130
21
88
31
0
0
LINE
8
PART
10
130
20
88
30
0
11
210
21
88
31
0
0
LINE
8
PART
10
210
20
88
30
0
11
210
21
72
31
0
0
LINE
8
HIDDEN
10
152
20
45
30
0
11
152
21
88
31
0
0
LINE
8
HIDDEN
10
188
20
45
30
0
11
188
21
88
31
0
0
LINE
8
CENTER
10
170
20
40
30
0
11
170
21
94
31
0
0
LINE
8
HATCH
10
84
20
47
30
0
11
100
21
63
31
0
0
LINE
8
HATCH
10
100
20
47
30
0
11
116
21
63
31
0
0
LINE
8
HATCH
10
116
20
47
30
0
11
132
21
63
31
0
0
LINE
8
HATCH
10
132
20
47
30
0
11
148
21
63
31
0
0
LINE
8
HATCH
10
192
20
47
30
0
11
208
21
63
31
0
0
LINE
8
HATCH
10
208
20
47
30
0
11
224
21
63
31
0
0
LINE
8
HATCH
10
224
20
47
30
0
11
240
21
63
31
0
0
LINE
8
HATCH
10
240
20
47
30
0
11
256
21
63
31
0
0
TEXT
8
DIM
10
265
20
54
30
0
40
3.0
50
90
1
BASE 12
0
TEXT
8
DIM
10
215
20
82
30
0
40
3.0
1
BOSS +16
0
TEXT
8
CALLOUT
10
86
20
34
30
0
40
3.0
1
POCKETED UNDERSIDE: 3.5 WALL, 45° RIB HATCH
999
RIGHT SIDE VIEW
0
TEXT
8
TEXT
10
300
20
232
30
0
40
4.0
1
RIGHT SIDE VIEW
0
LINE
8
PART
10
300
20
130
30
0
11
380
21
130
31
0
0
LINE
8
PART
10
380
20
130
30
0
11
380
21
148
31
0
0
LINE
8
PART
10
380
20
148
30
0
11
300
21
148
31
0
0
LINE
8
PART
10
300
20
148
30
0
11
300
21
130
31
0
0
LINE
8
PART
10
325
20
148
30
0
11
325
21
178
31
0
0
LINE
8
PART
10
325
20
178
30
0
11
355
21
178
31
0
0
LINE
8
PART
10
355
20
178
30
0
11
355
21
148
31
0
0
LINE
8
CENTER
10
340
20
124
30
0
11
340
21
185
31
0
0
LINE
8
HIDDEN
10
320
20
139
30
0
11
360
21
139
31
0
0
TEXT
8
DIM
10
384
20
136
30
0
40
3.0
50
90
1
18
0
TEXT
8
DIM
10
358
20
164
30
0
40
3.0
1
30 BOSS HT
0
TEXT
8
CALLOUT
10
295
20
112
30
0
40
3.0
1
ALL SHARP EDGES: C0.5 | SURFACE: Ra 1.6 MACHINED DATUMS
999
DATUMS AND SECTION MARKS
0
LINE
8
CALLOUT
10
80
20
220
30
0
11
260
21
220
31
0
0
TEXT
8
CALLOUT
10
72
20
218
30
0
40
4.0
1
A
0
TEXT
8
CALLOUT
10
263
20
218
30
0
40
4.0
1
A
0
LINE
8
CALLOUT
10
72
20
220
30
0
11
80
21
224
31
0
0
LINE
8
CALLOUT
10
72
20
220
30
0
11
80
21
216
31
0
0
LINE
8
CALLOUT
10
268
20
220
30
0
11
260
21
224
31
0
0
LINE
8
CALLOUT
10
268
20
220
30
0
11
260
21
216
31
0
0
TEXT
8
CALLOUT
10
82
20
112
30
0
40
3.0
1
DATUM B
0
TEXT
8
CALLOUT
10
262
20
122
30
0
40
3.0
1
DATUM C
999
NOTES
0
TEXT
8
TEXT
10
20
20
60
30
0
40
3.0
1
GENERAL NOTES:
0
TEXT
8
TEXT
10
20
20
53
30
0
40
2.6
1
1. BREAK ALL EDGES C0.5 UNLESS OTHERWISE SPECIFIED.
0
TEXT
8
TEXT
10
20
20
47
30
0
40
2.6
1
2. CRITICAL HOLE POSITION TRUE POS 0.05 TO DATUMS A|B|C.
0
TEXT
8
TEXT
10
20
20
41
30
0
40
2.6
1
3. BLACK HARD ANODIZE, MASK LOCATING BORE Ø36 H7.
0
TEXT
8
TEXT
10
20
20
35
30
0
40
2.6
1
4. DEBURR AFTER CNC FINISHING; NO VISIBLE TOOL CHATTER.
0
ENDSEC
0
EOF
